<svg fill="#f8f9fc" height="448pt" viewBox="0 0 448.01549 448" width="448pt" xmlns="http://www.w3.org/2000/svg"><path d="m376.015625 239.796875c0-4.417969-3.582031-8-8-8h-56c-4.417969 0-8 3.582031-8 8v8h72zm0 0"/><path d="m46.992188 252.109375c-.253907-.472656-.554688-.921875-.898438-1.335937-.261719-.328126-.546875-.636719-.855469-.921876-.433593-.367187-.902343-.6875-1.40625-.949218-.3125-.199219-.636719-.375-.96875-.53125-.90625-.367188-1.871093-.5625-2.847656-.574219-4.417969 0-8 3.582031-8 8s3.582031 8 8 8c4.007813-.035156 7.359375-3.058594 7.808594-7.039063l-.066407-2.21875c-.046874-.449218-.136718-.890624-.261718-1.328124-.140625-.378907-.308594-.746094-.503906-1.101563zm0 0"/><path d="m47.648438 71.148438 146.65625 79.457031c16.265624 8.816406 28.496093 23.574219 34.152343 41.191406h35.558594c4.417969 0 8 3.582031 8 8v48h16v-8c.03125-9.304687 5.4375-17.753906 13.871094-21.679687l-7.597657-28.320313c-8.167968-30.496094-29.804687-55.601563-58.761718-68.183594l-175.039063-76.648437c-7.144531-3.046875-15.421875.035156-18.835937 7.015625-3.410156 6.976562-.757813 15.402343 6.035156 19.167969zm0 0"/><path d="m27.558594 235.324219c.640625-.390625 1.328125-.695313 2-1.03125.527344-.257813 1.03125-.527344 1.601562-.753907.929688-.34375 1.875-.640624 2.839844-.878906.488281-.128906.953125-.304687 1.457031-.398437 1.5-.300781 3.027344-.457031 4.558594-.464844 1.5.003906 3 .15625 4.472656.457031.613281.109375 1.199219.320313 1.800781.480469.292969.078125.589844.140625.886719.238281l-3.960937-146.046875-3.199219-1.703125c-10.15625-5.503906-16.34375-16.261718-15.988281-27.808594.355468-11.546874 7.191406-21.902343 17.667968-26.769531l-.550781-19.335937c-.242187-3.078125-1.621093-5.953125-3.871093-8.0625-2.929688-2.605469-6.890626-3.726563-10.75-3.039063-3.859376.683594-7.191407 3.101563-9.042969 6.558594l-12.304688 24.605469c-3.398437 6.789062-5.1640622 14.277344-5.160156 21.867187.0039062 6.589844.539063 13.167969 1.601563 19.671875zm0 0"/><path d="m200.015625 351.796875v16h144v-16zm0 0"/><path d="m272.015625 263.796875v48c0 4.417969-3.582031 8-8 8h-120v16h256v-52.6875l-19.3125-19.3125zm88 16h16v24h-16zm-32 0h16v24h-16zm0 0"/><path d="m416.015625 383.796875c-17.671875 0-32 14.328125-32 32s14.328125 32 32 32 32-14.328125 32-32-14.328125-32-32-32zm0 48c-8.835937 0-16-7.164063-16-16s7.164063-16 16-16 16 7.164063 16 16-7.164063 16-16 16zm0 0"/><path d="m200.015625 303.796875h56v-56h-12.6875l-43.3125 43.3125zm0 0"/><path d="m256.015625 207.796875h-83.71875l-28.28125 42.398437v53.601563h40v-16c0-2.121094.84375-4.15625 2.34375-5.65625l48-48c1.5-1.5 3.535156-2.34375 5.65625-2.34375h16zm0 0"/><path d="m48.015625 343.796875v-65.472656c-9.273437 3.460937-19.71875.695312-26.0625-6.902344-1.144531-.277344-2.210937-.800781-3.128906-1.535156-12.984375 10.75-19.949219 27.132812-18.675781 43.941406 1.273437 16.808594 10.621093 31.957031 25.074218 40.632813l8.992188 5.335937h22.847656l-7.703125-11.558594c-.875-1.316406-1.339844-2.863281-1.34375-4.441406zm0 0"/><path d="m352.015625 383.796875h-188.320313c16.425782 18.171875 16.425782 45.828125 0 64h216.640626c-16.425782-18.171875-16.425782-45.828125 0-64zm-144 40h-16v-16h16zm48 0h-16v-16h16zm48 0h-16v-16h16zm48 0h-16v-16h16zm0 0"/><path d="m128.015625 383.796875c-17.671875 0-32 14.328125-32 32s14.328125 32 32 32 32-14.328125 32-32-14.328125-32-32-32zm0 48c-8.835937 0-16-7.164063-16-16s7.164063-16 16-16 16 7.164063 16 16-7.164063 16-16 16zm0 0"/></svg>