<svg fill="#f8f9fc" height="496pt" viewBox="0 0 496 496" width="496pt" xmlns="http://www.w3.org/2000/svg"><path d="m416.769531 0c-23.167969 0-45.097656 10.089844-60.167969 27.671875h.007813l-28.609375 33.367187v39.648438l-40 40-16-16-40 40-8-8-51.3125 51.3125 16 16-108.054688 108.054688-8.007812 40.007812-72.625 72.625v3.3125c0 26.472656 21.527344 48 48 48h3.3125l72.625-72.625 40.007812-8.007812 108.054688-108.054688 16 16 51.3125-51.3125-8-8 40-40-16-16 40-40h39.648438l33.367187-28.601562c17.582031-15.070313 27.671875-37 27.671875-60.167969 0-43.6875-35.542969-79.230469-79.230469-79.230469zm-36.082031 160-12.6875 12.6875-44.6875-44.6875 12.6875-12.6875zm-161.375 72 28.6875-28.6875 44.6875 44.6875-28.6875 28.6875zm48-32 28.6875-28.6875 28.6875 28.6875-28.6875 28.6875zm4.6875-52.6875 12.6875 12.6875-28.6875 28.6875-12.6875-12.6875zm-48 32 12.6875 12.6875-28.6875 28.6875-12.6875-12.6875zm-135.3125 194.054688 4.222656-21.144532 50.867188 50.867188-21.144532 4.222656zm-43.847656 106.472656c-15.136719-1.488282-27.199219-13.550782-28.6875-28.6875l63.839844-63.839844 28.6875 28.6875zm115.160156-83.152344-60.6875-60.6875 100.6875-100.6875 60.6875 60.6875zm128-96-12.6875-12.6875 28.6875-28.6875 12.6875 12.6875zm32-48-12.6875-12.6875 28.6875-28.6875 12.6875 12.6875zm-20.6875-100.6875 12.6875-12.6875 44.6875 44.6875-12.6875 12.6875zm158.609375-24.753906-28.882813 24.753906h-33.726562l-51.3125-51.3125v-33.726562l24.753906-28.882813h.007813c12.023437-14.03125 29.519531-22.078125 48.007812-22.078125 34.863281 0 63.230469 28.367188 63.230469 63.230469 0 18.488281-8.046875 35.984375-22.078125 48.015625zm0 0"/><path d="m416 32c-26.472656 0-48 21.527344-48 48s21.527344 48 48 48 48-21.527344 48-48-21.527344-48-48-48zm0 80c-17.648438 0-32-14.351562-32-32s14.351562-32 32-32 32 14.351562 32 32-14.351562 32-32 32zm0 0"/></svg>