<svg fill="#f8f9fc" id="Layer_1" enable-background="new 0 0 512 512" height="512" viewBox="0 0 512 512" width="512" xmlns="http://www.w3.org/2000/svg"><g><path d="m187.7 341.2h.9c-.5-5.7-2-11.3-4.4-16.5l-.8.5c-2.4 1.4-5.5.5-6.8-1.9-1.4-2.4-.5-5.4 1.8-6.8l.8-.5c-3.3-4.7-7.4-8.7-12.1-12.1l-.5.8c-1.4 2.4-4.4 3.2-6.8 1.9-2.4-1.4-3.2-4.4-1.9-6.8 0 0 0 0 0-.1l.5-.8c-5.2-2.4-10.8-3.9-16.5-4.4v.9c0 2.8-2.2 5-5 5s-5-2.2-5-5v-.9c-5.7.5-11.3 2-16.5 4.4l.5.8c1.4 2.4.6 5.4-1.8 6.8s-5.4.6-6.8-1.8l-.5-.8c-4.7 3.3-8.7 7.4-12.1 12.1l.8.5c2.4 1.4 3.2 4.4 1.9 6.8-1.4 2.4-4.4 3.2-6.8 1.9 0 0 0 0-.1 0l-.8-.5c-2.4 5.2-3.9 10.8-4.4 16.5h.9c2.8 0 5 2.2 5 5s-2.2 5-5 5h-.9c.5 5.7 2 11.3 4.4 16.5l.8-.5c2.4-1.4 5.4-.6 6.8 1.8s.6 5.4-1.8 6.8c0 0 0 0-.1 0l-.8.5c3.3 4.7 7.4 8.7 12.1 12.1l.5-.8c1.4-2.4 4.4-3.2 6.8-1.8s3.2 4.4 1.8 6.8l-.5.8c5.2 2.4 10.8 3.9 16.5 4.4v-.8c0-2.8 2.2-5 5-5s5 2.2 5 5v.9c5.7-.5 11.3-2 16.5-4.4l-.5-.8c-1.4-2.4-.6-5.4 1.8-6.8s5.4-.6 6.8 1.8l.5.8c4.7-3.3 8.7-7.4 12.1-12.1l-.8-.5c-2.4-1.4-3.2-4.5-1.8-6.8 1.4-2.4 4.4-3.2 6.8-1.8l.8.5c2.4-5.2 3.9-10.8 4.4-16.5h-.9c-2.6-.1-4.8-2.3-4.8-5.1s2.2-5 5-5zm-50.8 37c-17.6 0-31.9-14.3-31.9-31.9s14.3-31.9 31.9-31.9 31.9 14.3 31.9 31.9-14.3 31.9-31.9 31.9z"/><path d="m136.9 324.3c-12.1 0-21.9 9.8-21.9 21.9s9.8 21.9 21.9 21.9 21.9-9.8 21.9-21.9-9.8-21.9-21.9-21.9z"/><path d="m106.7 201.9 13.7-35.6-28.8-.1z"/><path d="m152.3 166.4-21.2-.1-16.9 44h38.1z"/><path d="m357.5 259.7-36.1-82.6-45.1 5.8 39.7 92.5z"/><path d="m221.1 189.9 29.9 83.2 34.4 13.9 21.2-8-40.6-94.8z"/><path d="m89 139.3 102.8-1.1h.1c2.1 0 3.9 1.2 4.7 3.2l14.9 39.8 244.6-31.1c2.2-.3 3.2-3 1.5-4.6-.5-.5-1.3-.8-2-.8l-207.7 10.3c-2.6.1-5.1-.9-6.9-2.7l-31.3-32.2c-3.7-3.8-9-5.8-14.3-5.3l-107.1 9.2c-3.9.3-6.9 3.6-6.9 7.6-.1 4.3 3.4 7.7 7.6 7.7z"/><path d="m207.5 232.1h-17.8v32.8l3.7 8.2h28.2z"/><path d="m459.1 221-27-58-45 5.8 30.5 68z"/><path d="m408.3 240.3-31.5-70.2-45.1 5.7 35.1 80.3z"/><path d="m179.7 178c0-6.4-5.2-11.6-11.6-11.7h-5.8v48.9c0 2.8-2.2 5-5 5h-47.2l-5.8 12.3h75.5z"/><path d="m470.7 158.1-28.1 3.6 25.9 55.8 24.2-9.2v-28.7z"/><path d="m415.5 324.3c-12.1 0-21.9 9.8-21.9 21.9s9.8 21.9 21.9 21.9 21.9-9.8 21.9-21.9-9.8-21.9-21.9-21.9z"/><path d="m19.3 332.8h53.9l3.9-13.5h-57.8z"/><path d="m466.3 341.2h.9c-.5-5.7-2-11.3-4.4-16.5l-.8.5c-2.4 1.4-5.4.6-6.8-1.8s-.6-5.4 1.8-6.8h.1l.8-.5c-3.3-4.7-7.4-8.7-12.1-12.1l-.5.8c-1.4 2.4-4.4 3.2-6.8 1.9-2.4-1.4-3.2-4.4-1.9-6.8 0 0 0 0 0-.1l.5-.8c-5.2-2.4-10.8-3.9-16.5-4.4v.9c0 2.8-2.2 5-5 5s-5-2.2-5-5v-.9c-5.7.5-11.3 2-16.5 4.4l.5.8c1.4 2.4.6 5.4-1.8 6.8s-5.4.6-6.8-1.8c0 0 0 0 0-.1l-.5-.8c-4.7 3.3-8.7 7.4-12.1 12.1l.8.5c2.4 1.4 3.2 4.4 1.9 6.8-1.4 2.4-4.4 3.2-6.8 1.9 0 0 0 0-.1 0l-.8-.5c-2.4 5.2-3.9 10.8-4.4 16.5h.9c2.8 0 5 2.2 5 5s-2.2 5-5 5h-.9c.5 5.7 2 11.3 4.4 16.5l.8-.5c2.4-1.4 5.4-.6 6.8 1.8s.6 5.4-1.8 6.8c0 0 0 0-.1 0l-.8.5c3.3 4.7 7.4 8.7 12.1 12.1l.5-.8c1.4-2.4 4.4-3.2 6.8-1.9 2.4 1.4 3.2 4.4 1.9 6.8v.1l-.5.8c5.2 2.4 10.8 3.9 16.5 4.4v-.8c0-2.8 2.2-5 5-5s5 2.2 5 5v.9c5.7-.5 11.3-2 16.5-4.4l-.5-.8c-1.4-2.4-.6-5.4 1.8-6.8s5.4-.6 6.8 1.8v.1l.5.8c4.7-3.3 8.7-7.4 12.1-12.1l-.8-.5c-2.4-1.4-3.2-4.4-1.9-6.8 1.4-2.4 4.4-3.2 6.8-1.9h.1l.8.5c2.4-5.2 3.9-10.8 4.4-16.5h-.9c-2.8 0-5-2.2-5-5s2.2-5.1 5-5.1zm-50.8 37c-17.6 0-31.9-14.3-31.9-31.9s14.3-31.9 31.9-31.9 31.9 14.3 31.9 31.9-14.2 31.9-31.9 31.9z"/><path d="m334.4 312.3h-62.5c-1.2 0-2.1 1-2.1 2.1v27c0 1.2 1 2.1 2.1 2.1h62.5c1.2 0 2.1-1 2.1-2.1v-27c0-1.1-.9-2.1-2.1-2.1z"/><path d="m97 282.9h82.7v-40.4h-143.8c-4.2 0-7.6 3.4-7.6 7.6v59.2h51.8l12.2-23c.7-2 2.6-3.4 4.7-3.4z"/><path d="m259.8 341.5v-.5h-36.1l8.1 18.2h41.4v-5.6h-1.3c-6.7 0-12.1-5.4-12.1-12.1z"/><path d="m430.1 247.8c-2.2-2.7-5.8-3.6-9.1-2.4l-133.9 51.7c-1.2.4-2.5.4-3.6 0l-38.4-15.4c-1.3-.5-2.4-1.6-2.8-3l-12.9-36.1h-7.7l11.6 33.8c.7 2.1.1 4.5-1.6 5.8-.9.7-2 1-3 1h-30.7l3.8 8.5h25.4c2.6 0 4.9 1.9 5.2 4.5.3 3-2.1 5.5-5 5.5h-21.2l4.2 9.5h25.4c2.6 0 4.9 1.9 5.2 4.5.3 3-2.1 5.5-5 5.5h-21.2l4.4 9.9h40.6v-16.5c0-6.7 5.4-12.1 12.1-12.1h62.5c6.7 0 12.1 5.4 12.1 12.1v11.2c0 2.6 1.9 4.9 4.4 5.3 2.5.3 4.8-1.2 5.5-3.6 1.3-4.1 3.1-8.1 5.2-11.8 0-.1.1-.2.1-.3s.1-.2.2-.2c5.4-9.2 13.1-16.9 22.3-22.3l.5-.3c.6-.3 1.2-.7 1.8-1 22.3-11.8 49.6-7.9 68.4 8.9l19.5 17.4c1.7 2.2 4.9 2.5 7 .8 2.3-1.9 2.6-5.1.8-7.3z"/></g></svg>