<svg fill="#f8f9fc" id="Layer_2_copy_3" height="512" viewBox="0 0 64 64" width="512" xmlns="http://www.w3.org/2000/svg" data-name="Layer 2 copy 3"><path d="m52 38.57c-5.39 2.02-14 2.43-20 2.43s-14.61-.41-20-2.43v19.43c-1.28.57-2 .83-2 1.5 0 2.5 9.85 4.5 22 4.5s22-2 22-4.5c0-.67-.72-.93-2-1.5z"/><path d="m53 31.35v-19.12c-5.18 2.18-13.54 2.77-21 2.77s-15.82-.59-21-2.77v19.12c-1.1.49-2 1-2 2.15 0 4.34 14.46 5.5 23 5.5s23-1.16 23-5.5c0-1.16-.9-1.66-2-2.15zm-21 2.65a6 6 0 0 1 -6-6c0-3 4.62-10.65 5.15-11.52a1 1 0 0 1 1.71 0c.52.87 5.14 8.52 5.14 11.52a6 6 0 0 1 -6 6z"/><path d="m32.12 30.15a2.66 2.66 0 0 1 -1.53-.48 1 1 0 0 1 1.13-1.67.81.81 0 0 0 .88 0 1 1 0 0 1 1.4.3 1 1 0 0 1 -.26 1.37 2.94 2.94 0 0 1 -1.62.48z"/><path d="m32 0c-15 0-24 2.43-24 6.5s9 6.5 24 6.5 24-2.43 24-6.5-9-6.5-24-6.5zm-12 7c-1.1 0-2-.38-2-.84s.9-.84 2-.84 2 .38 2 .84-.9.84-2 .84z"/></svg>